<?xml version="1.0" encoding="UTF-8"?>
<svg version="1.1" xmlns="http://www.w3.org/2000/svg" width="35" height="35">
<path d="M0 0 C0 0.99 0 1.98 0 3 C-0.33 3.33 -0.66 3.66 -1 4 C-1.07226502 5.85287502 -1.0838122 7.70833878 -1.0625 9.5625 C-1.05347656 10.57441406 -1.04445313 11.58632813 -1.03515625 12.62890625 C-1.02355469 13.41136719 -1.01195313 14.19382812 -1 15 C0.32 15.33 1.64 15.66 3 16 C3 19.63 3 23.26 3 27 C-2.28 27 -7.56 27 -13 27 C-13 25.35 -13 23.7 -13 22 C-19.27 22 -25.54 22 -32 22 C-32 21.01 -32 20.02 -32 19 C-31.34 19 -30.68 19 -30 19 C-30 18.01 -30 17.02 -30 16 C-29.34 15.67 -28.68 15.34 -28 15 C-27.94589313 13.22950311 -27.90715881 11.45853151 -27.875 9.6875 C-27.85179687 8.70136719 -27.82859375 7.71523437 -27.8046875 6.69921875 C-27.79317361 3.77593473 -27.79317361 3.77593473 -30 1 C-27.77423549 0.00107301 -25.54633213 -0.99186433 -23.3125 -1.97265625 C-21.63084634 -2.71974225 -19.96598547 -3.50498384 -18.3125 -4.3125 C-12.06362844 -6.17027263 -5.68520528 -2.41565047 0 0 Z " fill="#676FD5" transform="translate(32,8)"/>
<path d="M0 0 C1.1765918 0.0009668 1.1765918 0.0009668 2.37695312 0.00195312 C8.17203152 0.04703152 8.17203152 0.04703152 9.3125 1.1875 C9.4114294 3.35230797 9.442211 5.52043785 9.4375 7.6875 C9.44136719 9.46640625 9.44136719 9.46640625 9.4453125 11.28125 C9.3125 14.1875 9.3125 14.1875 8.3125 15.1875 C6.67777118 15.27450342 5.03935945 15.29451063 3.40234375 15.28515625 C2.41298828 15.28193359 1.42363281 15.27871094 0.40429688 15.27539062 C-0.63662109 15.26701172 -1.67753906 15.25863281 -2.75 15.25 C-3.79478516 15.24548828 -4.83957031 15.24097656 -5.91601562 15.23632812 C-8.5065666 15.22449913 -11.09700559 15.20801689 -13.6875 15.1875 C-13.62761859 13.06170987 -13.53887256 10.93671587 -13.4375 8.8125 C-13.39109375 7.62914062 -13.3446875 6.44578125 -13.296875 5.2265625 C-12.6875 2.1875 -12.6875 2.1875 -11.18359375 0.78515625 C-7.44590163 -0.10978412 -3.82845368 -0.06066774 0 0 Z " fill="#333A9D" transform="translate(17.6875,9.8125)"/>
<path d="M0 0 C0 2.97 0 5.94 0 9 C-5.28 9 -10.56 9 -16 9 C-16 7.35 -16 5.7 -16 4 C-22.27 4 -28.54 4 -35 4 C-35 3.01 -35 2.02 -35 1 C-23.31514456 0.28874793 -11.70795574 -0.14534014 0 0 Z " fill="#5168AE" transform="translate(35,26)"/>
<path d="M0 0 C0 4.95 0 9.9 0 15 C-3.96 15 -7.92 15 -12 15 C-11.94011859 12.87420987 -11.85137256 10.74921587 -11.75 8.625 C-11.70359375 7.44164062 -11.6571875 6.25828125 -11.609375 5.0390625 C-11 2 -11 2 -9.390625 0.5859375 C-7 0 -7 0 0 0 Z " fill="#3940A4" transform="translate(16,10)"/>
<path d="M0 0 C5.28 0 10.56 0 16 0 C16 1.98 16 3.96 16 6 C10.72 6 5.44 6 0 6 C0 4.02 0 2.04 0 0 Z " fill="#25ACE8" transform="translate(19,29)"/>
<path d="M0 0 C1.32 0.33 2.64 0.66 4 1 C4 5.29 4 9.58 4 14 C2.68 14.33 1.36 14.66 0 15 C0 10.05 0 5.1 0 0 Z " fill="#2C3595" transform="translate(23,10)"/>
<path d="M0 0 C10.89 0 21.78 0 33 0 C33 0.66 33 1.32 33 2 C21.97991499 2.83058514 11.05016019 3.12308347 0 3 C0 2.01 0 1.02 0 0 Z " fill="#5B8FE4" transform="translate(2,24)"/>
<path d="M0 0 C1.32 0 2.64 0 4 0 C4 4.95 4 9.9 4 15 C2.68 15 1.36 15 0 15 C0 10.05 0 5.1 0 0 Z " fill="#4751B6" transform="translate(19,10)"/>
<path d="M0 0 C0.66 0 1.32 0 2 0 C2 0.66 2 1.32 2 2 C2.66 2 3.32 2 4 2 C4.33 6.29 4.66 10.58 5 15 C3.35 15 1.7 15 0 15 C0 10.05 0 5.1 0 0 Z " fill="#4A55B9" transform="translate(26,10)"/>
<path d="M0 0 C0.99 0 1.98 0 3 0 C3.33 4.29 3.66 8.58 4 13 C2.35 13 0.7 13 -1 13 C-0.67 8.71 -0.34 4.42 0 0 Z " fill="#4B53BA" transform="translate(5,12)"/>
<path d="M0 0 C1.32 0 2.64 0 4 0 C4 4.95 4 9.9 4 15 C2.68 15 1.36 15 0 15 C0 10.05 0 5.1 0 0 Z " fill="#4C54BB" transform="translate(12,10)"/>
</svg>
